# xmcd
#
# Track frame offsets: 
#        151
#        10797
#        23879
#        34440
#        48623
#        58417
#        68016
#        79370
#        89471
#        100477
#        111219
#        123131
#        133496
#        141855
#        154018
#        164439
#        177465
#        190687
#        203699
#        215444
#        228791
#        239978
#        254830
#        266505
#
# Disc length: 3742 seconds
#
# Revision: 1
# Processed by: cddbd v1.5.2PL0 Copyright (c) Steve Scherf et al.
# Submitted via: ExactAudioCopy v0.99pb3
#
DISCID=6d0e9c18
DTITLE=Roy Willing And The Riders Of The Purple Sage - "Cowboy" and "The
DTITLE=New Sound Of American Folk"
DYEAR=1999
DGENRE=Country
TTITLE0=Cowboy (Song Of The Cowboy)
TTITLE1=Red River Valley
TTITLE2=Hang Your Head In Shame
TTITLE3=Dreary Black Hills
TTITLE4=Rose Of San Antone
TTITLE5=Beautiful Moon Over Texas
TTITLE6=Blue Shadows On The Trail
TTITLE7=My Heart Is Blind
TTITLE8=Soft Winds
TTITLE9=Have I Told You Lately That I love You
TTITLE10=Cool, Cool Water
TTITLE11=No One To Cry To
TTITLE12=Fireball Mail
TTITLE13=Kisses Sweeter Than Wine
TTITLE14=Just Because
TTITLE15=Live And Let Live
TTITLE16=When My Blue Moon Turns To Gold
TTITLE17=Five Hundred Miles
TTITLE18=Old Lonesome Train
TTITLE19=Dark As A Dungeon
TTITLE20=Never Let Me Cross Your Mind
TTITLE21=Someone Won Your Heart
TTITLE22=Pins And Needles
TTITLE23=I Cried Myself To Sleep
EXTD=
EXTT0=
EXTT1=
EXTT2=
EXTT3=
EXTT4=
EXTT5=
EXTT6=
EXTT7=
EXTT8=
EXTT9=
EXTT10=
EXTT11=
EXTT12=
EXTT13=
EXTT14=
EXTT15=
EXTT16=
EXTT17=
EXTT18=
EXTT19=
EXTT20=
EXTT21=
EXTT22=
EXTT23=
PLAYORDER=
